# xmcd CD database file
#
# Track frame offsets:
#	150
#	17725
#	43545
#	67895
#	85270
#	105550
#	124300
#	138830
#	165930
#	189830
#	207080
#
# Disc length: 2967 seconds
#
# Revision: 0
# Processed by: cddbd v1.5.2PL0 Copyright (c) Steve Scherf et al.
# Submitted via: CDex 1.70beta2
#
DISCID=830b950b
DTITLE=Q - indivi Starring Rin Oikawa - Celebration
DYEAR=2009
DGENRE=Electric pop
TTITLE0=Air On The G String～Ｇ線上のアリア 
TTITLE1=Pomp And Circumstance～威風堂々 
TTITLE2=Wedding March～結婚行進曲 
TTITLE3=Salute D'amour～愛の挨拶
TTITLE4=Turandot～トゥーランドット
TTITLE5=Serenade For Strings～弦楽セレナーデ 
TTITLE6=Pathetic～悲愴
TTITLE7=Gymnopedie～ジムノペディ 
TTITLE8=Clair De Lune～月の光 
TTITLE9=Etude～別れの曲 
TTITLE10=Jesus, Joy Of Man's Desiring～主よ人の望みの喜びを 
EXTD=YEAR: 2009
EXTT0=
EXTT1=
EXTT2=
EXTT3=
EXTT4=
EXTT5=
EXTT6=
EXTT7=
EXTT8=
EXTT9=
EXTT10=
PLAYORDER=
